<svg width="30" height="44" viewBox="0 0 30 44" fill="none" xmlns="http://www.w3.org/2000/svg">
<path d="M16.9512 2.48781C16.9512 1.41018 16.0776 0.536589 15 0.536589C13.9224 0.536589 13.0488 1.41018 13.0488 2.48781L16.9512 2.48781ZM13.6203 42.8919C14.3823 43.6539 15.6177 43.6539 16.3797 42.8919L28.7972 30.4744C29.5592 29.7124 29.5592 28.477 28.7972 27.715C28.0352 26.953 26.7998 26.953 26.0378 27.715L15 38.7528L3.96223 27.715C3.20024 26.953 1.96479 26.953 1.20279 27.715C0.440794 28.477 0.440794 29.7124 1.20279 30.4744L13.6203 42.8919ZM13.0488 2.48781L13.0488 41.5122L16.9512 41.5122L16.9512 2.48781L13.0488 2.48781Z" fill="#F1F1F1"/>
</svg>
