<svg width="25" height="25" viewBox="0 0 25 25" fill="none" xmlns="http://www.w3.org/2000/svg">
<path d="M10.3459 11.1839C10.3972 10.8453 10.5101 10.5477 10.6538 10.2912C10.7975 10.0347 11.0028 9.81917 11.2594 9.65499C11.5057 9.50106 11.8136 9.42923 12.1934 9.41897C12.4295 9.42923 12.645 9.47028 12.84 9.55237C13.0453 9.64472 13.2301 9.76786 13.3737 9.92178C13.5174 10.0757 13.6303 10.2604 13.7227 10.4656C13.8151 10.6709 13.8561 10.8966 13.8664 11.1224H15.7036C15.6831 10.6401 15.5907 10.1988 15.4162 9.79865C15.2418 9.39845 15.0057 9.04956 14.6978 8.76224C14.3899 8.47492 14.0204 8.24917 13.5893 8.08498C13.1582 7.9208 12.6861 7.84897 12.1626 7.84897C11.4955 7.84897 10.9104 7.96184 10.4178 8.19786C9.9251 8.43387 9.51454 8.74172 9.1861 9.14191C8.85766 9.54211 8.61132 10.0039 8.45737 10.5375C8.30341 11.0711 8.21104 11.6252 8.21104 12.2204V12.4974C8.21104 13.0926 8.29315 13.6467 8.4471 14.1803C8.60106 14.7139 8.84739 15.1757 9.17584 15.5656C9.50428 15.9555 9.91483 16.2736 10.4075 16.4994C10.9002 16.7251 11.4852 16.8483 12.1523 16.8483C12.6347 16.8483 13.0864 16.7662 13.5072 16.6123C13.928 16.4583 14.2975 16.2428 14.6157 15.9658C14.9338 15.6887 15.1904 15.3706 15.3752 15.0012C15.5599 14.6318 15.6728 14.2419 15.6831 13.8211H13.8459C13.8356 14.0366 13.7843 14.2316 13.6919 14.4163C13.5995 14.601 13.4764 14.7549 13.3224 14.8883C13.1685 15.0217 12.994 15.1243 12.7887 15.1962C12.5937 15.268 12.3884 15.2885 12.1729 15.2988C11.8034 15.2885 11.4955 15.2167 11.2594 15.0628C11.0028 14.8986 10.7975 14.6831 10.6538 14.4266C10.5101 14.17 10.3972 13.8622 10.3459 13.5236C10.2946 13.1849 10.2638 12.836 10.2638 12.4974V12.2204C10.2638 11.8612 10.2946 11.5226 10.3459 11.1839ZM12.3166 2.09229C6.65093 2.09229 2.05273 6.68942 2.05273 12.3538C2.05273 18.0181 6.65093 22.6152 12.3166 22.6152C17.9822 22.6152 22.5804 18.0181 22.5804 12.3538C22.5804 6.68942 17.9822 2.09229 12.3166 2.09229ZM12.3166 20.5629C7.79022 20.5629 4.1055 16.8791 4.1055 12.3538C4.1055 7.82844 7.79022 4.14458 12.3166 4.14458C16.8429 4.14458 20.5276 7.82844 20.5276 12.3538C20.5276 16.8791 16.8429 20.5629 12.3166 20.5629Z" fill="#E1E1E1"/>
</svg>
