<svg width="21" height="21" viewBox="0 0 21 21" fill="none" xmlns="http://www.w3.org/2000/svg">
<path d="M10.2986 7.57443C8.46197 7.57443 6.96311 9.07294 6.96311 10.9092C6.96311 12.7454 8.46197 14.2439 10.2986 14.2439C12.1353 14.2439 13.6342 12.7454 13.6342 10.9092C13.6342 9.07294 12.1353 7.57443 10.2986 7.57443ZM20.3027 10.9092C20.3027 9.52825 20.3152 8.15982 20.2376 6.78139C20.1601 5.18031 19.7947 3.75935 18.6237 2.58856C17.4501 1.41527 16.0313 1.05252 14.4299 0.974968C13.0486 0.897415 11.6799 0.909924 10.3011 0.909924C8.91988 0.909924 7.55114 0.897415 6.17239 0.974968C4.57094 1.05252 3.14966 1.41777 1.97859 2.58856C0.80503 3.76185 0.442202 5.18031 0.364631 6.78139C0.287061 8.16232 0.299572 9.53075 0.299572 10.9092C0.299572 12.2876 0.287061 13.6585 0.364631 15.037C0.442202 16.6381 0.807533 18.059 1.97859 19.2298C3.15216 20.4031 4.57094 20.7658 6.17239 20.8434C7.55365 20.9209 8.92239 20.9084 10.3011 20.9084C11.6824 20.9084 13.0511 20.9209 14.4299 20.8434C16.0313 20.7658 17.4526 20.4006 18.6237 19.2298C19.7972 18.0565 20.1601 16.6381 20.2376 15.037C20.3177 13.6585 20.3027 12.2901 20.3027 10.9092ZM10.2986 16.0401C7.45856 16.0401 5.16648 13.7486 5.16648 10.9092C5.16648 8.06976 7.45856 5.77821 10.2986 5.77821C13.1387 5.77821 15.4308 8.06976 15.4308 10.9092C15.4308 13.7486 13.1387 16.0401 10.2986 16.0401ZM15.641 6.76638C14.9779 6.76638 14.4424 6.23102 14.4424 5.56807C14.4424 4.90512 14.9779 4.36976 15.641 4.36976C16.3041 4.36976 16.8396 4.90512 16.8396 5.56807C16.8398 5.72549 16.8089 5.8814 16.7487 6.02688C16.6886 6.17235 16.6003 6.30453 16.4889 6.41584C16.3776 6.52716 16.2454 6.61542 16.0999 6.67557C15.9544 6.73572 15.7984 6.76658 15.641 6.76638Z" fill="#E1E1E1"/>
</svg>
