<svg width="158" height="158" viewBox="0 0 158 158" fill="none" xmlns="http://www.w3.org/2000/svg">
<path d="M78.8292 141.967L79.9362 142.021L79.4244 152.467L78.3175 152.413L78.5481 147.704L74.9154 147.526L71.395 152.074L70.0698 152.009L73.9865 147.027L70.566 141.562L71.8912 141.627L74.9369 146.449L78.6008 146.628L78.8292 141.967Z" fill="#F1F1F1"/>
<path d="M58.5902 138.647L66.2683 140.691L63.5784 150.797L55.9003 148.754L56.1613 147.773L62.7684 149.532L63.7159 145.972L57.3351 144.274L57.592 143.308L63.9728 145.006L64.9363 141.386L58.3293 139.628L58.5902 138.647Z" fill="#F1F1F1"/>
<path d="M46.9025 133.253L54.006 136.812L49.3211 146.162L42.2175 142.603L42.672 141.696L48.7847 144.759L50.4349 141.465L44.5316 138.507L44.9791 137.614L50.8825 140.572L52.5607 137.222L46.4479 134.16L46.9025 133.253Z" fill="#F1F1F1"/>
<path d="M41.9212 129.863L42.786 130.556L36.2452 138.717L32.4937 135.71C30.7275 134.294 30.2954 132.288 31.6914 130.546C33.0972 128.792 35.1499 128.777 36.916 130.192L39.8028 132.506L41.9212 129.863ZM33.2013 134.977L36.0149 137.232L39.1682 133.298L36.3546 131.042C34.9173 129.891 33.6813 129.86 32.5684 131.249C31.475 132.613 31.764 133.825 33.2013 134.977Z" fill="#F1F1F1"/>
<path d="M26.0719 112.655C27.7442 115.236 27.2938 117.239 25.6171 118.325L25.5385 118.376L24.9273 117.433L25.0976 117.323C26.3552 116.508 26.527 115.281 25.1943 113.224C24.0567 111.469 23.0542 110.984 22.0587 111.629C21.0762 112.265 21.1045 113.084 21.6744 114.538L22.5261 116.627C23.1763 118.233 23.3123 119.763 21.8582 120.706C20.6661 121.478 18.7988 121.237 17.1689 118.722C15.5645 116.246 16.1614 114.297 17.7596 113.261L17.8382 113.21L18.4494 114.154L18.2922 114.255C17.0215 115.079 16.8497 116.306 18.0891 118.219C19.2181 119.961 20.2252 120.424 21.1815 119.805C22.1771 119.16 22.1048 118.388 21.5395 116.913L20.7094 114.828C19.992 113.061 20.0065 111.619 21.3689 110.736C22.6264 109.921 24.493 110.219 26.0719 112.655Z" fill="#F1F1F1"/>
<path d="M20.0831 100.519C21.1523 103.386 19.916 106.146 16.8593 107.286C13.8025 108.426 11.0607 107.15 9.99148 104.283C9.04776 101.753 9.75184 99.3078 11.9749 98.4787L12.1504 98.4132L12.5705 99.5394L12.395 99.6048C10.7276 100.227 10.1933 101.742 10.9952 103.892C11.9062 106.335 13.7883 107.182 16.4501 106.189C19.112 105.196 19.9795 103.323 19.0685 100.881C18.2666 98.731 16.8704 97.9356 15.2031 98.5575L15.0276 98.6229L14.6075 97.4968L14.783 97.4313C17.0061 96.6021 19.134 97.9743 20.0831 100.519Z" fill="#F1F1F1"/>
<path d="M17.038 90.0936L17.1841 91.1922L6.81685 92.5708L6.14196 87.4955C5.85389 85.3292 6.75704 83.7131 8.66028 83.46C10.4088 83.2275 11.6627 84.3678 11.9643 86.2803L12.0417 86.27C12.1368 85.5645 12.5341 85.118 13.0902 84.6819L16.0031 82.3104L16.1718 83.5792L13.4148 85.8197C12.6182 86.4611 12.3189 87.052 12.502 88.4292L12.7983 90.6574L17.038 90.0936ZM7.67654 91.3384L11.9163 90.7746L11.3895 86.8134C11.1714 85.1732 10.4063 84.3931 8.93634 84.5886C7.46635 84.7841 6.93169 85.737 7.14979 87.3772L7.67654 91.3384Z" fill="#F1F1F1"/>
<path d="M16.5807 72.6872C16.2935 75.7803 13.979 77.7444 10.7306 77.4428C7.4821 77.1411 5.56889 74.7844 5.85611 71.6913C6.14621 68.5672 8.46067 66.603 11.7091 66.9047C14.9576 67.2063 16.8708 69.5631 16.5807 72.6872ZM15.5082 72.5876C15.7536 69.9453 14.4297 68.3331 11.6009 68.0704C8.77208 67.8077 7.17393 69.1486 6.92857 71.7909C6.68465 74.4177 8.01001 76.0144 10.8388 76.2771C13.6676 76.5397 15.2643 75.2144 15.5082 72.5876Z" fill="#F1F1F1"/>
<path d="M20.4123 55.7089L18.0461 63.0809L8.08795 59.8846L8.42666 58.8294L17.4187 61.7155L19.4462 55.3988L20.4123 55.7089Z" fill="#F1F1F1"/>
<path d="M26.3516 44.2925L22.5386 51.0309L13.4363 45.8803L13.9821 44.9157L22.2013 49.5667L25.4685 43.7928L26.3516 44.2925Z" fill="#F1F1F1"/>
<path d="M30.2137 39.2596L29.5181 40.1225L21.3755 33.5591L22.0711 32.6962L30.2137 39.2596Z" fill="#F1F1F1"/>
<path d="M35.2803 33.6153L34.4437 34.3421L27.5848 26.4467L28.504 25.6482L37.2981 27.4168L39.3992 27.9074L39.4699 27.846L38.3202 26.5702L33.6419 21.1849L34.4786 20.458L41.3374 28.3534L40.4182 29.1519L31.6989 27.4218L29.5522 26.9501L29.4933 27.0013L30.6634 28.3006L35.2803 33.6153Z" fill="#F1F1F1"/>
<path d="M50.095 23.2544C47.4555 24.6408 44.6166 23.7341 43.0995 20.8458C41.5824 17.9576 42.5161 15.0692 45.28 13.6174C47.6845 12.3544 50.1706 12.7236 51.2522 14.7827L51.3175 14.9071L50.2534 15.466L50.1881 15.3416C49.3824 13.8077 47.8123 13.5039 45.767 14.5782C43.4315 15.805 42.8148 17.7863 44.1359 20.3014C45.457 22.8166 47.4245 23.4405 49.7324 22.2283C51.9297 21.0741 52.572 19.6788 51.6284 17.8823L51.4469 17.5368L47.771 19.4676L47.3645 18.6937L52.0354 16.2403L54.4308 20.8007L53.5464 21.2652L52.4866 19.2476L52.4175 19.2839C52.7316 21.0232 51.7395 22.3906 50.095 23.2544Z" fill="#F1F1F1"/>
<path d="M68.8008 12.7055L64.6266 13.482L64.4467 12.5152L68.621 11.7387L68.8008 12.7055Z" fill="#F1F1F1"/>
<path d="M83.0554 16.0846L81.9537 15.9641L83.0913 5.56761L84.193 5.68817L83.6803 10.3743L87.2957 10.77L91.0826 6.44207L92.4016 6.58639L88.193 11.3235L91.2795 16.9846L89.9605 16.8402L87.2096 11.844L83.5631 11.445L83.0554 16.0846Z" fill="#F1F1F1"/>
<path d="M103.058 20.6127L95.5168 18.1121L98.8083 8.18502L106.35 10.6856L106.031 11.6487L99.541 9.4969L98.3816 12.9936L104.649 15.0717L104.335 16.0199L98.0672 13.9419L96.8881 17.4978L103.378 19.6496L103.058 20.6127Z" fill="#F1F1F1"/>
<path d="M114.4 26.6988L107.523 22.7198L112.761 13.6673L119.638 17.6463L119.13 18.5245L113.212 15.1005L111.367 18.2892L117.082 21.5959L116.582 22.4607L110.867 19.1539L108.991 22.3966L114.909 25.8206L114.4 26.6988Z" fill="#F1F1F1"/>
<path d="M119.171 30.3815L118.349 29.6378L125.368 21.8842L128.933 25.1107C130.611 26.6297 130.922 28.6587 129.423 30.3136C127.915 31.98 125.865 31.872 124.187 30.353L121.444 27.8703L119.171 30.3815ZM128.182 25.8001L125.509 23.3802L122.125 27.1181L124.799 29.538C126.164 30.7741 127.396 30.8786 128.59 29.5593C129.764 28.2632 129.548 27.0362 128.182 25.8001Z" fill="#F1F1F1"/>
<path d="M133.958 48.5091C132.443 45.8328 133.013 43.8603 134.752 42.8763L134.834 42.8302L135.387 43.8083L135.21 43.9083C133.906 44.6463 133.661 45.8611 134.868 47.9941C135.898 49.8145 136.87 50.3588 137.902 49.7746C138.921 49.198 138.942 48.3791 138.46 46.894L137.736 44.7572C137.183 43.115 137.139 41.5794 138.647 40.7261C139.883 40.0265 141.733 40.379 143.209 42.9874C144.662 45.5551 143.949 47.465 142.291 48.4029L142.21 48.449L141.656 47.4708L141.82 47.3786C143.137 46.6329 143.383 45.418 142.26 43.4345C141.238 41.6276 140.26 41.1046 139.268 41.6658C138.236 42.2501 138.262 43.0247 138.737 44.5311L139.441 46.6619C140.051 48.4689 139.95 49.9071 138.537 50.7066C137.233 51.4446 135.388 51.036 133.958 48.5091Z" fill="#F1F1F1"/>
<path d="M139.208 60.9826C138.313 58.057 139.713 55.3759 142.832 54.4213C145.952 53.4667 148.612 54.9054 149.508 57.831C150.298 60.4133 149.448 62.8117 147.179 63.506L147 63.5608L146.649 62.4114L146.828 62.3566C148.529 61.8359 149.154 60.3553 148.482 58.1611C147.719 55.6683 145.892 54.7095 143.175 55.5408C140.458 56.3721 139.48 58.1896 140.243 60.6824C140.914 62.8766 142.26 63.7543 143.962 63.2336L144.141 63.1788L144.493 64.3281L144.314 64.3829C142.045 65.0772 140.003 63.5798 139.208 60.9826Z" fill="#F1F1F1"/>
<path d="M141.622 71.5721L141.542 70.4667L151.973 69.7127L152.343 74.8194C152.5 76.9991 151.502 78.558 149.587 78.6964C147.827 78.8236 146.644 77.6102 146.458 75.683L146.38 75.6886C146.243 76.3871 145.819 76.809 145.238 77.211L142.188 79.4034L142.096 78.1267L144.982 76.0557C145.816 75.4633 146.15 74.8914 146.05 73.5057L145.888 71.2638L141.622 71.5721ZM151.041 70.8913L146.775 71.1996L147.063 75.1853C147.183 76.8356 147.9 77.6602 149.379 77.5533C150.858 77.4464 151.449 76.5273 151.329 74.877L151.041 70.8913Z" fill="#F1F1F1"/>
<path d="M141.034 88.9746C141.507 85.9043 143.935 84.0826 147.159 84.5786C150.384 85.0747 152.152 87.542 151.68 90.6122C151.203 93.7133 148.775 95.535 145.55 95.039C142.326 94.543 140.557 92.0757 141.034 88.9746ZM142.099 89.1383C141.695 91.7611 142.92 93.4499 145.728 93.8819C148.536 94.3138 150.212 93.0712 150.615 90.4484C151.016 87.8411 149.789 86.1677 146.981 85.7358C144.173 85.3038 142.5 86.531 142.099 89.1383Z" fill="#F1F1F1"/>
<path d="M136.19 105.692L138.995 98.4756L148.743 102.264L148.342 103.297L139.539 99.8761L137.136 106.06L136.19 105.692Z" fill="#F1F1F1"/>
<path d="M129.576 116.732L133.786 110.234L142.563 115.922L141.961 116.852L134.035 111.716L130.427 117.283L129.576 116.732Z" fill="#F1F1F1"/>
<path d="M125.42 121.524L126.166 120.704L133.9 127.745L133.154 128.564L125.42 121.524Z" fill="#F1F1F1"/>
<path d="M120.024 126.854L120.903 126.179L127.275 134.471L126.31 135.213L117.638 132.92L115.57 132.304L115.496 132.361L116.567 133.704L120.913 139.36L120.035 140.036L113.662 131.743L114.627 131.001L123.227 133.251L125.342 133.851L125.404 133.803L124.313 132.436L120.024 126.854Z" fill="#F1F1F1"/>
<path d="M104.615 136.307C107.333 135.082 110.112 136.157 111.453 139.131C112.794 142.105 111.689 144.932 108.843 146.216C106.367 147.332 103.908 146.815 102.952 144.694L102.894 144.566L103.99 144.072L104.047 144.2C104.76 145.78 106.309 146.177 108.415 145.227C110.819 144.143 111.554 142.202 110.386 139.612C109.218 137.023 107.292 136.282 104.915 137.353C102.653 138.373 101.928 139.728 102.762 141.578L102.922 141.933L106.708 140.227L107.067 141.024L102.257 143.192L100.14 138.496L101.051 138.086L101.987 140.163L102.058 140.131C101.849 138.376 102.922 137.071 104.615 136.307Z" fill="#F1F1F1"/>
<path d="M88.2356 145.715L92.4489 145.19L92.5704 146.166L88.3571 146.691L88.2356 145.715Z" fill="#F1F1F1"/>
</svg>
