<svg width="25" height="21" viewBox="0 0 25 21" fill="none" xmlns="http://www.w3.org/2000/svg">
<path d="M24.707 3.28493C23.8015 3.67546 22.816 3.95653 21.801 4.06599C22.8548 3.44007 23.644 2.4512 24.0205 1.28493C23.0316 1.87306 21.9483 2.28547 20.8185 2.50387C20.3464 1.99921 19.7753 1.59718 19.1409 1.32282C18.5066 1.04847 17.8225 0.907666 17.1313 0.909192C14.3348 0.909192 12.0858 3.17546 12.0858 5.95653C12.0858 6.34706 12.1331 6.73759 12.2101 7.11333C8.0227 6.8944 4.28812 4.8944 1.8053 1.83227C1.3529 2.6048 1.11583 3.48442 1.11875 4.3796C1.11875 6.13108 2.00949 7.67546 3.36779 8.58374C2.56732 8.55223 1.7856 8.33226 1.0862 7.94173V8.00386C1.0862 10.4565 2.82032 12.4891 5.13151 12.9565C4.69756 13.0692 4.25115 13.1269 3.8028 13.1281C3.47432 13.1281 3.1636 13.0956 2.84992 13.0512C3.48912 15.0512 5.35049 16.5039 7.56698 16.5512C5.83285 17.9092 3.66075 18.708 1.30222 18.708C0.879049 18.708 0.488426 18.6932 0.0830078 18.6459C2.32021 20.0808 4.97467 20.9092 7.83331 20.9092C17.1136 20.9092 22.1916 13.2228 22.1916 6.5512C22.1916 6.33227 22.1916 6.11333 22.1768 5.8944C23.1593 5.17546 24.0205 4.28493 24.707 3.28493Z" fill="#E1E1E1"/>
</svg>
