<svg width="20" height="21" viewBox="0 0 20 21" fill="none" xmlns="http://www.w3.org/2000/svg">
<path d="M9.74502 18.7752C14.2301 18.7752 17.866 15.1393 17.866 10.6542C17.866 6.1691 14.2301 2.5332 9.74502 2.5332C5.25992 2.5332 1.62402 6.1691 1.62402 10.6542C1.62402 11.774 1.85066 12.8409 2.26056 13.8114C2.48711 14.3477 2.60038 14.6159 2.6144 14.8186C2.62843 15.0213 2.56877 15.2443 2.44946 15.6902L1.62402 18.7752L4.709 17.9498C5.15494 17.8305 5.37791 17.7708 5.58059 17.7848C5.78328 17.7988 6.05147 17.9121 6.58786 18.1387C7.5584 18.5485 8.62522 18.7752 9.74502 18.7752Z" fill="#E1E1E1"/>
<path d="M10.4615 10.6544C11.4112 10.6544 12.1812 11.4726 12.1812 12.4817C12.1812 13.4908 11.4112 14.3089 10.4615 14.3089H8.45512C7.91462 14.3089 7.6444 14.3089 7.4765 14.1442C7.30859 13.9796 7.30859 13.7145 7.30859 13.1845V10.6544M10.4615 10.6544C11.4112 10.6544 12.1812 9.83634 12.1812 8.82722C12.1812 7.81808 11.4112 7 10.4615 7H8.45512C7.91462 7 7.6444 7 7.4765 7.16467C7.30859 7.32934 7.30859 7.59438 7.30859 8.12445V10.6544M10.4615 10.6544H7.30859" stroke="#E3E3E3" stroke-width="0.97452" stroke-linecap="round" stroke-linejoin="round"/>
</svg>
